<svg xmlns="http://www.w3.org/2000/svg" xmlns:xlink="http://www.w3.org/1999/xlink" width="623" height="190" viewBox="0 0 623 190">
    <defs>
        <path id="a" d="M0 189.194h622.898V0H0z"/>
    </defs>
    <g fill="none" fill-rule="evenodd">
        <path fill="#CD2727" d="M429.935 35.529h50.785v93.434h-29.705c-11.643 0-21.08-9.436-21.08-21.078V35.53z"/>
        <mask id="b" fill="#fff">
            <use xlink:href="#a"/>
        </mask>
        <path fill="#CD2727" d="M493.448 128.95h50.793V35.501h-50.793zM195.177 128.96h-50.798V35.504h29.714c11.643 0 21.084 9.438 21.084 21.082v72.376zM80.861 128.95h50.793V35.501H80.86zM550.504 48.665l3.769-2.932L612.287.59v40.393h10.611v10.39h-10.61v77.576h-50.791V51.374h-9.858a1.51 1.51 0 0 1-1.13-2.692l-.005-.017zM0 128.95h65.264V.59H0zM349.168.286s69.669-7.949 69.669 64.178c0 72.662-69.669 64.183-69.669 64.183V.287zM336.44 128.69s-69.672 7.95-69.672-64.177c0-73.005 69.65-64.178 69.65-64.178l.022 128.355z" mask="url(#b)"/>
        <path fill="#00A550" d="M231.448 11.777c-5.45 0-9.782 1.732-12.996 5.196-3.214 3.463-4.823 8.103-4.823 13.92 0 7.897 4.208 17.664 12.622 29.3 7.746-5.403 13.275-10.529 16.583-15.377 3.31-4.848 4.964-10.182 4.964-16 0-4.986-1.536-9.072-4.612-12.259-3.074-3.186-6.986-4.78-11.738-4.78m-8.805 126.592c6.29 0 11.915-1.256 16.875-3.77 4.96-2.516 10.446-6.428 16.456-11.74l-1.467-1.61a2269.596 2269.596 0 0 1-23.715-27.61L217.99 77.517l-1.468-1.815c-16.463 8.275-24.693 18.922-24.693 31.944 0 8.954 2.9 16.312 8.7 22.077 5.799 5.766 13.17 8.646 22.114 8.646m64.566-62.25a223.582 223.582 0 0 0 1.99-4.191 49.187 49.187 0 0 1 2.201-4.19c1.258 2.145 2.272 3.68 3.04 4.607.77.93 2.41 2.393 4.926 4.396l-.838 1.5c-.839.854-3.844 4.82-9.013 11.893a3985.521 3985.521 0 0 0-18.239 25.183c8.665 9.432 17.33 18.8 25.994 28.093v1.248h-24.526c-1.258-2.484-3.528-5.73-6.813-9.733-3.284-4.002-5.345-6.557-6.184-7.664-6.428 6.428-13.38 11.388-20.857 14.883-7.477 3.493-15.478 5.24-24.001 5.24-11.88 0-21.384-3.145-28.51-9.433-7.128-6.287-10.692-14.602-10.692-24.943 0-10.058 3.424-18.512 10.272-25.36 6.848-6.846 15.862-13.134 27.041-18.862-4.891-6.567-8.455-12.471-10.69-17.71-2.236-5.24-3.354-10.306-3.354-15.195 0-8.384 3.11-15.476 9.327-21.274 6.22-5.8 13.801-8.699 22.745-8.699 8.386 0 15.024 1.957 19.915 5.87 4.892 3.911 7.336 9.221 7.336 15.928 0 7.685-2.57 14.357-7.708 20.015-5.14 5.66-12.072 11.423-20.8 17.292 4.077 6.287 9.593 13.59 16.551 21.902 6.956 8.315 13.807 16.035 20.552 23.162 3.355-4.73 7.163-10.533 11.426-17.41 4.26-6.877 7.231-12.394 8.909-16.548M305.21 145.796h307.078v-3.324H305.211z" mask="url(#b)"/>
        <path fill="#00A550" d="M0 145.796h263.17v-3.324H0zM0 188.598v-32.84h22.867v5.55H6.74v7.797h13.943v5.55H6.739v13.943H0zm586.597 0v-32.84h24.634v5.55h-17.894v7.292h16.639v5.55h-16.64v8.899h18.546v5.55h-25.284zm-77.199 0v-32.84h14.152c3.556 0 6.143.298 7.754.886 1.62.588 2.905 1.636 3.874 3.141.967 1.514 1.456 3.234 1.456 5.176 0 2.47-.728 4.503-2.192 6.108-1.464 1.606-3.649 2.615-6.561 3.035 1.448.833 2.641 1.751 3.578 2.752.945 1.001 2.216 2.783 3.812 5.336l4.059 6.406h-8.033l-4.819-7.17c-1.727-2.546-2.912-4.151-3.555-4.816-.635-.658-1.31-1.117-2.022-1.36-.72-.247-1.851-.368-3.401-.368h-1.363v13.714h-6.739zm6.74-18.943h4.972c3.223 0 5.23-.138 6.034-.405.799-.267 1.433-.734 1.883-1.392.457-.657.681-1.482.681-2.468 0-1.109-.302-1.996-.898-2.684-.596-.68-1.44-1.108-2.525-1.283-.55-.078-2.185-.116-4.903-.116h-5.245v8.348zm-83.94-13.897h6.74v17.796c0 2.828.084 4.655.248 5.489.286 1.345.96 2.43 2.03 3.24 1.075.819 2.54 1.224 4.398 1.224 1.883 0 3.308-.383 4.269-1.154.96-.773 1.534-1.713 1.728-2.837.193-1.124.293-2.98.293-5.58v-18.178h6.74v17.268c0 3.945-.178 6.736-.543 8.363-.364 1.63-1.03 3.004-2.005 4.128-.969 1.124-2.271 2.011-3.897 2.676-1.635.665-3.757 1-6.383 1-3.168 0-5.57-.357-7.205-1.085-1.633-.726-2.927-1.666-3.88-2.828-.953-1.162-1.572-2.369-1.874-3.646-.443-1.88-.659-4.663-.659-8.34v-17.536zm-64.543 32.84v-27.29h-9.853v-5.55h26.4v5.55h-9.806v27.29h-6.74zm-64.262 0h6.739v-32.84h-6.74v32.84zm-76.968 0v-32.84h6.522l13.695 22.008v-22.008h6.23v32.84h-6.733l-13.486-21.587v21.587h-6.228zm-77.2 0v-32.84h14.153c3.555 0 6.142.298 7.753.886 1.62.588 2.906 1.636 3.874 3.141.968 1.514 1.456 3.234 1.456 5.176 0 2.47-.728 4.503-2.192 6.108-1.465 1.606-3.649 2.615-6.561 3.035 1.448.833 2.641 1.751 3.578 2.752.946 1.001 2.216 2.783 3.812 5.336l4.059 6.406h-8.033l-4.818-7.17c-1.728-2.546-2.913-4.151-3.556-4.816-.635-.658-1.309-1.117-2.022-1.36-.72-.247-1.851-.368-3.4-.368h-1.364v13.714h-6.739zm6.739-18.943h4.973c3.223 0 5.23-.138 6.035-.405.798-.267 1.433-.734 1.882-1.392.458-.657.682-1.482.682-2.468 0-1.109-.302-1.996-.899-2.684-.596-.68-1.44-1.108-2.525-1.283-.55-.078-2.184-.116-4.903-.116h-5.245v8.348zm-83.939-13.897h6.74v17.796c0 2.828.085 4.655.248 5.489.286 1.345.96 2.43 2.03 3.24 1.076.819 2.54 1.224 4.4 1.224 1.881 0 3.306-.383 4.267-1.154.96-.773 1.534-1.713 1.727-2.837.195-1.124.295-2.98.295-5.58v-18.178h6.74v17.268c0 3.945-.18 6.736-.543 8.363-.365 1.63-1.03 3.004-2.006 4.128-.969 1.124-2.27 2.011-3.897 2.676-1.634.665-3.757 1-6.383 1-3.168 0-5.57-.357-7.204-1.085-1.635-.726-2.928-1.666-3.881-2.828-.952-1.162-1.573-2.369-1.874-3.646-.442-1.88-.659-4.663-.659-8.34v-17.536z" mask="url(#b)"/>
    </g>
</svg>
